<?xml version="1.0" encoding="iso-8859-1"?>
<!-- Uploaded to: SVG Repo, www.svgrepo.com, Generator: SVG Repo Mixer Tools -->
<!DOCTYPE svg PUBLIC "-//W3C//DTD SVG 1.1//EN" "http://www.w3.org/Graphics/SVG/1.1/DTD/svg11.dtd">
<svg fill="#000000" height="800px" width="800px" version="1.1" id="Capa_1" xmlns="http://www.w3.org/2000/svg" xmlns:xlink="http://www.w3.org/1999/xlink" 
	 viewBox="0 0 187.5 187.5" xml:space="preserve">
<path d="M85.393,123.161c-14.431,0-26.17-11.74-26.17-26.171c0-14.43,11.74-26.17,26.17-26.17s26.17,11.74,26.17,26.17
	C111.563,111.421,99.823,123.161,85.393,123.161z M163,30.25V182.5c0,2.762-2.239,5-5,5H29.5c-2.761,0-5-2.238-5-5v-152v-0.25V5
	c0-2.762,2.239-5,5-5H158c2.761,0,5,2.238,5,5s-2.239,5-5,5h-5.5v15.25h5.5C160.761,25.25,163,27.488,163,30.25z M137.938,145.295
	l-25.448-24.384c5.639-6.381,9.072-14.756,9.072-23.921c0-19.944-16.226-36.17-36.17-36.17s-36.17,16.226-36.17,36.17
	c0,19.944,16.226,36.171,36.17,36.171c7.164,0,13.843-2.102,19.468-5.71l26.159,25.065c0.969,0.929,2.215,1.39,3.459,1.39
	c1.315,0,2.629-0.516,3.611-1.541C139.999,150.371,139.932,147.206,137.938,145.295z M142.5,10h-108v15.25h108V10z"/>
</svg>