<?xml version="1.0" encoding="iso-8859-1"?>
<!-- Uploaded to: SVG Repo, www.svgrepo.com, Generator: SVG Repo Mixer Tools -->
<!DOCTYPE svg PUBLIC "-//W3C//DTD SVG 1.1//EN" "http://www.w3.org/Graphics/SVG/1.1/DTD/svg11.dtd">
<svg fill="#000000" height="800px" width="800px" version="1.1" id="Capa_1" xmlns="http://www.w3.org/2000/svg" xmlns:xlink="http://www.w3.org/1999/xlink" 
	 viewBox="0 0 295.5 295.5" xml:space="preserve">
<g>
	<path d="M113.164,127.086c-23.142,0-41.969,18.854-41.969,42.027c0,15.452,12.179,27.999,13.566,29.378
		c2.285,2.271,5.297,7.3,6.274,10.456l3.352,13.743c0.818,3.359,3.828,5.724,7.286,5.724h22.979c3.457,0,6.467-2.363,7.286-5.722
		l3.355-13.748c0.973-3.147,3.984-8.178,6.272-10.453c1.388-1.379,13.564-13.927,13.564-29.378
		C155.131,145.939,136.305,127.086,113.164,127.086z M130.99,187.855c-4.134,4.111-8.489,11.422-10.131,17.004
		c-0.033,0.112-0.063,0.225-0.091,0.338l-2.006,8.218h-11.197l-2.004-8.216c-0.027-0.116-0.059-0.231-0.093-0.346
		c-1.649-5.588-6.004-12.896-10.116-16.983c-2.547-2.565-9.157-10.934-9.157-18.756c0-14.903,12.098-27.027,26.969-27.027
		c14.869,0,26.967,12.124,26.967,27.027C140.131,176.935,133.521,185.305,130.99,187.855z"/>
	<path d="M212.163,0h-198c-4.143,0-7.5,3.357-7.5,7.5V288c0,4.143,3.357,7.5,7.5,7.5h198c4.143,0,7.5-3.357,7.5-7.5V7.5
		C219.663,3.357,216.306,0,212.163,0z M204.663,280.5h-183V15h183V280.5z"/>
	<path d="M47.163,87.75h132c4.143,0,7.5-3.357,7.5-7.5V40.5c0-4.143-3.357-7.5-7.5-7.5h-132c-4.143,0-7.5,3.357-7.5,7.5v39.75
		C39.663,84.393,43.021,87.75,47.163,87.75z M54.663,48h117v24.75h-117V48z"/>
	<path d="M121.413,235.25h-16.5c-4.143,0-7.5,3.357-7.5,7.5s3.357,7.5,7.5,7.5h16.5c4.143,0,7.5-3.357,7.5-7.5
		S125.556,235.25,121.413,235.25z"/>
	<path d="M113.427,254.75h-0.527c-4.143,0-7.5,3.357-7.5,7.5s3.357,7.5,7.5,7.5h0.527c4.143,0,7.5-3.357,7.5-7.5
		S117.569,254.75,113.427,254.75z"/>
	<path d="M113.427,118.25c4.143,0,7.5-3.357,7.5-7.5s-3.357-7.5-7.5-7.5h-0.527c-4.143,0-7.5,3.357-7.5,7.5s3.357,7.5,7.5,7.5
		H113.427z"/>
	<path d="M75.927,123.75c0-4.143-3.357-7.5-7.5-7.5h-0.527c-4.143,0-7.5,3.357-7.5,7.5s3.358,7.5,7.5,7.5h0.527
		C72.569,131.25,75.927,127.893,75.927,123.75z"/>
	<path d="M158.427,116.25h-0.527c-4.143,0-7.5,3.357-7.5,7.5s3.357,7.5,7.5,7.5h0.527c4.143,0,7.5-3.357,7.5-7.5
		S162.569,116.25,158.427,116.25z"/>
	<path d="M175.427,152.75h-0.527c-4.143,0-7.5,3.357-7.5,7.5s3.357,7.5,7.5,7.5h0.527c4.143,0,7.5-3.357,7.5-7.5
		S179.569,152.75,175.427,152.75z"/>
	<path d="M54.427,152.75h-0.527c-4.142,0-7.5,3.357-7.5,7.5s3.358,7.5,7.5,7.5h0.527c4.143,0,7.5-3.357,7.5-7.5
		S58.569,152.75,54.427,152.75z"/>
	<path d="M237.664,225.442c0,1.164,0.271,2.313,0.792,3.355l18.086,36.173c1.271,2.54,3.867,4.146,6.708,4.146
		s5.438-1.605,6.708-4.146l18.087-36.173c0.521-1.042,0.792-2.191,0.792-3.355V47.75c0-4.143-3.357-7.5-7.5-7.5h-36.173
		c-4.143,0-7.5,3.357-7.5,7.5V225.442z M252.664,217.942V79.365h21.173v138.577H252.664z M273.837,55.25v9.115h-21.173V55.25
		H273.837z M263.25,244.845l-5.951-11.902h11.902L263.25,244.845z"/>
</g>
</svg>