<?xml version="1.0" encoding="utf-8"?>

<!-- Uploaded to: SVG Repo, www.svgrepo.com, Generator: SVG Repo Mixer Tools -->
<svg height="800px" width="800px" version="1.1" id="Icons" xmlns="http://www.w3.org/2000/svg" xmlns:xlink="http://www.w3.org/1999/xlink" 
	 viewBox="0 0 32 32" xml:space="preserve">
<style type="text/css">
	.st0{fill:#FFFFFF;}
</style>
<path d="M24,16c-4.4,0-8,3.6-8,8s3.6,8,8,8s8-3.6,8-8S28.4,16,24,16z M27,25h-2v2c0,0.6-0.4,1-1,1s-1-0.4-1-1v-2h-2
	c-0.6,0-1-0.4-1-1s0.4-1,1-1h2v-2c0-0.6,0.4-1,1-1s1,0.4,1,1v2h2c0.6,0,1,0.4,1,1S27.6,25,27,25z"/>
<path d="M14,24c0-5.5,4.5-10,10-10c1,0,2.1,0.2,3,0.5V9c0-0.6-0.4-1-1-1H11H9C7.9,8,7,7.1,7,6s0.9-2,2-2h17c0.6,0,1-0.4,1-1
	s-0.4-1-1-1H9C6.8,2,5,3.8,5,6v20c0,2.2,1.8,4,4,4h2h5C14.8,28.3,14,26.3,14,24z"/>
<g>
	<path d="M26,7H9C8.4,7,8,6.6,8,6s0.4-1,1-1h17c0.6,0,1,0.4,1,1S26.6,7,26,7z"/>
</g>
</svg>