<?xml version="1.0" encoding="utf-8"?>
<!-- Uploaded to: SVG Repo, www.svgrepo.com, Generator: SVG Repo Mixer Tools -->
<svg fill="#000000" version="1.1" id="Layer_1" xmlns="http://www.w3.org/2000/svg" xmlns:xlink="http://www.w3.org/1999/xlink" 
	 width="800px" height="800px" viewBox="0 0 248 256" enable-background="new 0 0 248 256" xml:space="preserve">
<path d="M118,31v194l128,29V2L118,31z M130,40.59l104-23.57v221.96l-104-23.57V40.59z M2,30v224h39v-30h12
	c18.085,0,31.965-15.162,31.965-33.346v-19.666h14.033c3.755,0,6.72-2.965,6.72-6.621c0-0.889-0.099-1.779-0.494-2.569
	l-19.468-47.435c0,0-1.779-18.085-3.36-25.002C75.181,58.132,40.751,30,3,30C2.704,30,2.988,30,2,30z M54.824,116.635
	c0-4.941,3.953-8.894,8.894-8.894s8.894,3.953,8.894,8.894c0,4.941-3.953,8.894-8.894,8.894S54.824,121.576,54.824,116.635z
	 M172.181,108.615l-30.51,3.277V69.268l30.51-5.912L172.181,108.615z M220.475,103.514l-32.78,3.516V93.262l32.78-4.353V103.514z
	 M220.475,68.601l-32.78,5.516V60.349l32.78-6.352V68.601z M220.475,172.389l-78.804-3.031v-12.594l78.804,1.02V172.389z
	 M220.475,138.254l-78.804,2.669V128.33l78.804-4.68V138.254z M220.475,206.524l-78.804-9.731v-12.594l78.804,7.72V206.524z"/>
</svg>