<?xml version="1.0" encoding="utf-8"?>

<!DOCTYPE svg PUBLIC "-//W3C//DTD SVG 1.1//EN" "http://www.w3.org/Graphics/SVG/1.1/DTD/svg11.dtd">
<!-- Uploaded to: SVG Repo, www.svgrepo.com, Generator: SVG Repo Mixer Tools -->
<svg height="800px" width="800px" version="1.1" id="_x32_" xmlns="http://www.w3.org/2000/svg" xmlns:xlink="http://www.w3.org/1999/xlink" 
	 viewBox="0 0 512 512"  xml:space="preserve">
<style type="text/css">
	.st0{fill:#000000;}
</style>
<g>
	<path class="st0" d="M259.993,460.958c14.498,14.498,75.487-23.002,89.985-37.492l59.598-59.606l-52.494-52.485l-59.597,59.597
		C282.996,385.462,245.504,446.46,259.993,460.958z"/>
	<path class="st0" d="M493.251,227.7c-14.498-14.49-37.996-14.49-52.485,0l-71.68,71.678l52.494,52.486l71.671-71.68
		C507.741,265.695,507.741,242.198,493.251,227.7z M399.586,308.882l-9.008-8.999l50.18-50.18l8.991,8.99L399.586,308.882z"/>
	<path class="st0" d="M374.714,448.193c-14.071,14.055-67.572,51.008-104.791,51.008c-0.008,0,0,0-0.008,0
		c-17.47,0-28.484-7.351-34.648-13.516c-44.758-44.775,36.604-138.56,37.492-139.439l4.123-4.124
		c-3.944-4.354-5.644-10.348-5.644-22.302c0-8.836,0-25.256,0-40.403c11.364-12.619,15.497-11.048,25.103-60.596
		c19.433,0,18.178-25.248,27.34-47.644c7.479-18.238,1.212-25.632-5.072-28.655c5.14-66.463,5.14-112.236-70.296-126.435
		c-27.349-23.438-68.606-15.48-88.158-11.57c-19.536,3.911-37.159,0-37.159,0l3.355,31.49
		C97.74,70.339,112.05,116.112,107.44,142.923c-5.994,3.27-11.407,10.809-4.269,28.254c9.17,22.396,7.906,47.644,27.339,47.644
		c9.614,49.548,13.747,47.976,25.111,60.596c0,15.148,0,31.567,0,40.403c0,25.248-8.58,25.684-28.134,36.612
		c-47.14,26.35-108.572,41.659-119.571,124.01C5.902,495.504,92.378,511.948,213.434,512
		c121.04-0.052,207.524-16.496,205.518-31.558c-3.168-23.702-10.648-41.547-20.68-55.806L374.714,448.193z"/>
</g>
</svg>